<mxfile host="app.diagrams.net" modified="2023-06-09T12:11:49.758Z" agent="Mozilla/5.0 (Windows NT 10.0; Win64; x64) AppleWebKit/537.36 (KHTML, like Gecko) Chrome/114.0.0.0 Safari/537.36" etag="xE2tz0hPNj-isgfyT06D" version="21.3.8" type="device">
  <diagram name="Page-1" id="2YBvvXClWsGukQMizWep">
    <mxGraphModel dx="712" dy="754" grid="1" gridSize="10" guides="1" tooltips="1" connect="1" arrows="1" fold="1" page="1" pageScale="1" pageWidth="850" pageHeight="1100" math="0" shadow="0">
      <root>
        <mxCell id="0" />
        <mxCell id="1" parent="0" />
        <mxCell id="IqrVllIv2yJcSSQRdT5F-1" value="GoToMarkManagement" style="shape=umlLifeline;perimeter=lifelinePerimeter;whiteSpace=wrap;html=1;container=0;dropTarget=0;collapsible=0;recursiveResize=0;outlineConnect=0;portConstraint=eastwest;newEdgeStyle={&quot;edgeStyle&quot;:&quot;elbowEdgeStyle&quot;,&quot;elbow&quot;:&quot;vertical&quot;,&quot;curved&quot;:0,&quot;rounded&quot;:0};" parent="1" vertex="1">
          <mxGeometry x="290" y="210" width="140" height="1190" as="geometry" />
        </mxCell>
        <mxCell id="IqrVllIv2yJcSSQRdT5F-2" value="doGet(request, response)" style="html=1;verticalAlign=bottom;startArrow=oval;endArrow=block;startSize=8;edgeStyle=elbowEdgeStyle;elbow=vertical;curved=0;rounded=0;" parent="IqrVllIv2yJcSSQRdT5F-1" target="IqrVllIv2yJcSSQRdT5F-3" edge="1">
          <mxGeometry relative="1" as="geometry">
            <mxPoint x="-90" y="70" as="sourcePoint" />
            <mxPoint x="55" y="70" as="targetPoint" />
          </mxGeometry>
        </mxCell>
        <mxCell id="IqrVllIv2yJcSSQRdT5F-3" value="" style="html=1;points=[];perimeter=orthogonalPerimeter;outlineConnect=0;targetShapes=umlLifeline;portConstraint=eastwest;newEdgeStyle={&quot;edgeStyle&quot;:&quot;elbowEdgeStyle&quot;,&quot;elbow&quot;:&quot;vertical&quot;,&quot;curved&quot;:0,&quot;rounded&quot;:0};" parent="IqrVllIv2yJcSSQRdT5F-1" vertex="1">
          <mxGeometry x="65" y="70" width="10" height="1080" as="geometry" />
        </mxCell>
        <mxCell id="IqrVllIv2yJcSSQRdT5F-4" value="Session" style="shape=umlLifeline;perimeter=lifelinePerimeter;whiteSpace=wrap;html=1;container=0;dropTarget=0;collapsible=0;recursiveResize=0;outlineConnect=0;portConstraint=eastwest;newEdgeStyle={&quot;edgeStyle&quot;:&quot;elbowEdgeStyle&quot;,&quot;elbow&quot;:&quot;vertical&quot;,&quot;curved&quot;:0,&quot;rounded&quot;:0};" parent="1" vertex="1">
          <mxGeometry x="460" y="210" width="100" height="1240" as="geometry" />
        </mxCell>
        <mxCell id="IqrVllIv2yJcSSQRdT5F-5" value="" style="html=1;points=[];perimeter=orthogonalPerimeter;outlineConnect=0;targetShapes=umlLifeline;portConstraint=eastwest;newEdgeStyle={&quot;edgeStyle&quot;:&quot;elbowEdgeStyle&quot;,&quot;elbow&quot;:&quot;vertical&quot;,&quot;curved&quot;:0,&quot;rounded&quot;:0};" parent="IqrVllIv2yJcSSQRdT5F-4" vertex="1">
          <mxGeometry x="45" y="90" width="10" height="30" as="geometry" />
        </mxCell>
        <mxCell id="IqrVllIv2yJcSSQRdT5F-8" value="alt" style="shape=umlFrame;whiteSpace=wrap;html=1;pointerEvents=0;width=55;height=20;" parent="1" vertex="1">
          <mxGeometry x="270" y="410" width="1260" height="700" as="geometry" />
        </mxCell>
        <mxCell id="IqrVllIv2yJcSSQRdT5F-9" value="Try" style="text;html=1;align=center;verticalAlign=middle;whiteSpace=wrap;rounded=0;fontStyle=3;fontColor=#FF8000;" parent="1" vertex="1">
          <mxGeometry x="260" y="420" width="150" height="20" as="geometry" />
        </mxCell>
        <mxCell id="IqrVllIv2yJcSSQRdT5F-10" value="getId()" style="html=1;verticalAlign=bottom;endArrow=block;edgeStyle=elbowEdgeStyle;elbow=vertical;curved=0;rounded=0;" parent="1" source="IqrVllIv2yJcSSQRdT5F-3" target="IqrVllIv2yJcSSQRdT5F-20" edge="1">
          <mxGeometry relative="1" as="geometry">
            <mxPoint x="360" y="450" as="sourcePoint" />
            <Array as="points">
              <mxPoint x="422" y="450" />
              <mxPoint x="402" y="460" />
              <mxPoint x="422" y="450" />
            </Array>
            <mxPoint x="507" y="450" as="targetPoint" />
          </mxGeometry>
        </mxCell>
        <mxCell id="IqrVllIv2yJcSSQRdT5F-11" value="HttpServletRequest" style="shape=umlLifeline;perimeter=lifelinePerimeter;whiteSpace=wrap;html=1;container=0;dropTarget=0;collapsible=0;recursiveResize=0;outlineConnect=0;portConstraint=eastwest;newEdgeStyle={&quot;edgeStyle&quot;:&quot;elbowEdgeStyle&quot;,&quot;elbow&quot;:&quot;vertical&quot;,&quot;curved&quot;:0,&quot;rounded&quot;:0};" parent="1" vertex="1">
          <mxGeometry x="580" y="210" width="120" height="1220" as="geometry" />
        </mxCell>
        <mxCell id="IqrVllIv2yJcSSQRdT5F-12" value="" style="html=1;points=[];perimeter=orthogonalPerimeter;outlineConnect=0;targetShapes=umlLifeline;portConstraint=eastwest;newEdgeStyle={&quot;edgeStyle&quot;:&quot;elbowEdgeStyle&quot;,&quot;elbow&quot;:&quot;vertical&quot;,&quot;curved&quot;:0,&quot;rounded&quot;:0};" parent="IqrVllIv2yJcSSQRdT5F-11" vertex="1">
          <mxGeometry x="55" y="150" width="10" height="30" as="geometry" />
        </mxCell>
        <mxCell id="IqrVllIv2yJcSSQRdT5F-13" value="" style="html=1;points=[];perimeter=orthogonalPerimeter;outlineConnect=0;targetShapes=umlLifeline;portConstraint=eastwest;newEdgeStyle={&quot;edgeStyle&quot;:&quot;elbowEdgeStyle&quot;,&quot;elbow&quot;:&quot;vertical&quot;,&quot;curved&quot;:0,&quot;rounded&quot;:0};" parent="IqrVllIv2yJcSSQRdT5F-11" vertex="1">
          <mxGeometry x="55" y="325" width="10" height="30" as="geometry" />
        </mxCell>
        <mxCell id="IqrVllIv2yJcSSQRdT5F-14" value="(Integer) getParameter(&quot;callid&quot;) &lt;br&gt;&lt;b&gt;&lt;font color=&quot;#ff8000&quot;&gt;?: [THROW NumberFormatExcpetion &lt;br&gt;| NullPointerExcpetion]&lt;/font&gt;&lt;/b&gt;" style="html=1;verticalAlign=bottom;endArrow=block;edgeStyle=elbowEdgeStyle;elbow=vertical;curved=0;rounded=0;" parent="IqrVllIv2yJcSSQRdT5F-11" target="IqrVllIv2yJcSSQRdT5F-13" edge="1">
          <mxGeometry relative="1" as="geometry">
            <mxPoint x="-222" y="325" as="sourcePoint" />
            <Array as="points">
              <mxPoint x="-158" y="325" />
              <mxPoint x="-178" y="335" />
              <mxPoint x="-158" y="325" />
            </Array>
            <mxPoint x="-73" y="325" as="targetPoint" />
          </mxGeometry>
        </mxCell>
        <mxCell id="IqrVllIv2yJcSSQRdT5F-15" value="callId" style="html=1;verticalAlign=bottom;endArrow=open;dashed=1;endSize=8;edgeStyle=elbowEdgeStyle;elbow=vertical;curved=0;rounded=0;" parent="IqrVllIv2yJcSSQRdT5F-11" source="IqrVllIv2yJcSSQRdT5F-13" edge="1">
          <mxGeometry x="0.0031" relative="1" as="geometry">
            <mxPoint x="-222" y="355" as="targetPoint" />
            <Array as="points">
              <mxPoint x="35" y="355" />
              <mxPoint x="-20" y="355" />
            </Array>
            <mxPoint x="47" y="355" as="sourcePoint" />
            <mxPoint as="offset" />
          </mxGeometry>
        </mxCell>
        <mxCell id="IqrVllIv2yJcSSQRdT5F-56" value="" style="html=1;points=[];perimeter=orthogonalPerimeter;outlineConnect=0;targetShapes=umlLifeline;portConstraint=eastwest;newEdgeStyle={&quot;edgeStyle&quot;:&quot;elbowEdgeStyle&quot;,&quot;elbow&quot;:&quot;vertical&quot;,&quot;curved&quot;:0,&quot;rounded&quot;:0};" parent="IqrVllIv2yJcSSQRdT5F-11" vertex="1">
          <mxGeometry x="55" y="410" width="10" height="30" as="geometry" />
        </mxCell>
        <mxCell id="IqrVllIv2yJcSSQRdT5F-57" value="(Integer) getParameter(&quot;studentid&quot;) &lt;br&gt;&lt;b&gt;&lt;font color=&quot;#ff8000&quot;&gt;?: [THROW NumberFormatExcpetion &lt;br&gt;| NullPointerExcpetion]&lt;/font&gt;&lt;/b&gt;" style="html=1;verticalAlign=bottom;endArrow=block;edgeStyle=elbowEdgeStyle;elbow=vertical;curved=0;rounded=0;" parent="IqrVllIv2yJcSSQRdT5F-11" target="IqrVllIv2yJcSSQRdT5F-56" edge="1">
          <mxGeometry relative="1" as="geometry">
            <mxPoint x="-222" y="410" as="sourcePoint" />
            <Array as="points">
              <mxPoint x="-158" y="410" />
              <mxPoint x="-178" y="420" />
              <mxPoint x="-158" y="410" />
            </Array>
            <mxPoint x="-73" y="410" as="targetPoint" />
          </mxGeometry>
        </mxCell>
        <mxCell id="IqrVllIv2yJcSSQRdT5F-58" value="studentId" style="html=1;verticalAlign=bottom;endArrow=open;dashed=1;endSize=8;edgeStyle=elbowEdgeStyle;elbow=vertical;curved=0;rounded=0;" parent="IqrVllIv2yJcSSQRdT5F-11" source="IqrVllIv2yJcSSQRdT5F-56" edge="1">
          <mxGeometry x="0.0031" relative="1" as="geometry">
            <mxPoint x="-222" y="440" as="targetPoint" />
            <Array as="points">
              <mxPoint x="35" y="440" />
              <mxPoint x="-20" y="440" />
            </Array>
            <mxPoint x="47" y="440" as="sourcePoint" />
            <mxPoint as="offset" />
          </mxGeometry>
        </mxCell>
        <mxCell id="IqrVllIv2yJcSSQRdT5F-75" value="" style="html=1;points=[];perimeter=orthogonalPerimeter;outlineConnect=0;targetShapes=umlLifeline;portConstraint=eastwest;newEdgeStyle={&quot;edgeStyle&quot;:&quot;elbowEdgeStyle&quot;,&quot;elbow&quot;:&quot;vertical&quot;,&quot;curved&quot;:0,&quot;rounded&quot;:0};" parent="IqrVllIv2yJcSSQRdT5F-11" vertex="1">
          <mxGeometry x="55" y="810" width="10" height="20" as="geometry" />
        </mxCell>
        <mxCell id="IqrVllIv2yJcSSQRdT5F-76" value="setAttribute(&quot;errorMessage&quot;, error message)" style="html=1;verticalAlign=bottom;endArrow=block;edgeStyle=elbowEdgeStyle;elbow=vertical;curved=0;rounded=0;" parent="IqrVllIv2yJcSSQRdT5F-11" target="IqrVllIv2yJcSSQRdT5F-75" edge="1">
          <mxGeometry relative="1" as="geometry">
            <mxPoint x="-215" y="810" as="sourcePoint" />
            <Array as="points">
              <mxPoint x="-158" y="810" />
              <mxPoint x="-178" y="820" />
              <mxPoint x="-158" y="810" />
            </Array>
            <mxPoint x="-73" y="810" as="targetPoint" />
          </mxGeometry>
        </mxCell>
        <mxCell id="IqrVllIv2yJcSSQRdT5F-78" value="" style="html=1;points=[];perimeter=orthogonalPerimeter;outlineConnect=0;targetShapes=umlLifeline;portConstraint=eastwest;newEdgeStyle={&quot;edgeStyle&quot;:&quot;elbowEdgeStyle&quot;,&quot;elbow&quot;:&quot;vertical&quot;,&quot;curved&quot;:0,&quot;rounded&quot;:0};" parent="IqrVllIv2yJcSSQRdT5F-11" vertex="1">
          <mxGeometry x="55" y="860" width="10" height="20" as="geometry" />
        </mxCell>
        <mxCell id="IqrVllIv2yJcSSQRdT5F-79" value="getRequestDispatcher(errorPath).forward(req, resp)" style="html=1;verticalAlign=bottom;endArrow=block;edgeStyle=elbowEdgeStyle;elbow=vertical;curved=0;rounded=0;" parent="IqrVllIv2yJcSSQRdT5F-11" target="IqrVllIv2yJcSSQRdT5F-78" edge="1">
          <mxGeometry relative="1" as="geometry">
            <mxPoint x="-215" y="860" as="sourcePoint" />
            <Array as="points">
              <mxPoint x="-158" y="860" />
              <mxPoint x="-178" y="870" />
              <mxPoint x="-158" y="860" />
            </Array>
            <mxPoint x="-73" y="860" as="targetPoint" />
          </mxGeometry>
        </mxCell>
        <mxCell id="IqrVllIv2yJcSSQRdT5F-19" value="User" style="shape=umlLifeline;perimeter=lifelinePerimeter;whiteSpace=wrap;html=1;container=0;dropTarget=0;collapsible=0;recursiveResize=0;outlineConnect=0;portConstraint=eastwest;newEdgeStyle={&quot;edgeStyle&quot;:&quot;elbowEdgeStyle&quot;,&quot;elbow&quot;:&quot;vertical&quot;,&quot;curved&quot;:0,&quot;rounded&quot;:0};" parent="1" vertex="1">
          <mxGeometry x="710" y="210" width="100" height="1230" as="geometry" />
        </mxCell>
        <mxCell id="IqrVllIv2yJcSSQRdT5F-20" value="" style="html=1;points=[];perimeter=orthogonalPerimeter;outlineConnect=0;targetShapes=umlLifeline;portConstraint=eastwest;newEdgeStyle={&quot;edgeStyle&quot;:&quot;elbowEdgeStyle&quot;,&quot;elbow&quot;:&quot;vertical&quot;,&quot;curved&quot;:0,&quot;rounded&quot;:0};" parent="IqrVllIv2yJcSSQRdT5F-19" vertex="1">
          <mxGeometry x="47" y="240" width="10" height="30" as="geometry" />
        </mxCell>
        <mxCell id="IqrVllIv2yJcSSQRdT5F-22" value="getAttribute(&quot;errorMessage&quot;)" style="html=1;verticalAlign=bottom;endArrow=block;edgeStyle=elbowEdgeStyle;elbow=vertical;curved=0;rounded=0;" parent="1" source="IqrVllIv2yJcSSQRdT5F-3" target="IqrVllIv2yJcSSQRdT5F-12" edge="1">
          <mxGeometry relative="1" as="geometry">
            <mxPoint x="350" y="360" as="sourcePoint" />
            <Array as="points">
              <mxPoint x="422" y="360" />
              <mxPoint x="402" y="370" />
              <mxPoint x="422" y="360" />
            </Array>
            <mxPoint x="507" y="360" as="targetPoint" />
          </mxGeometry>
        </mxCell>
        <mxCell id="IqrVllIv2yJcSSQRdT5F-23" value="error" style="html=1;verticalAlign=bottom;endArrow=open;dashed=1;endSize=8;edgeStyle=elbowEdgeStyle;elbow=vertical;curved=0;rounded=0;" parent="1" source="IqrVllIv2yJcSSQRdT5F-12" target="IqrVllIv2yJcSSQRdT5F-3" edge="1">
          <mxGeometry x="0.0031" relative="1" as="geometry">
            <mxPoint x="480" y="390" as="targetPoint" />
            <Array as="points">
              <mxPoint x="615" y="390" />
              <mxPoint x="560" y="390" />
            </Array>
            <mxPoint x="627" y="390" as="sourcePoint" />
            <mxPoint as="offset" />
          </mxGeometry>
        </mxCell>
        <mxCell id="IqrVllIv2yJcSSQRdT5F-24" value="CallEvaluationDAO" style="shape=umlLifeline;perimeter=lifelinePerimeter;whiteSpace=wrap;html=1;container=0;dropTarget=0;collapsible=0;recursiveResize=0;outlineConnect=0;portConstraint=eastwest;newEdgeStyle={&quot;edgeStyle&quot;:&quot;elbowEdgeStyle&quot;,&quot;elbow&quot;:&quot;vertical&quot;,&quot;curved&quot;:0,&quot;rounded&quot;:0};" parent="1" vertex="1">
          <mxGeometry x="820" y="210" width="120" height="1230" as="geometry" />
        </mxCell>
        <mxCell id="IqrVllIv2yJcSSQRdT5F-67" value="" style="html=1;points=[];perimeter=orthogonalPerimeter;outlineConnect=0;targetShapes=umlLifeline;portConstraint=eastwest;newEdgeStyle={&quot;edgeStyle&quot;:&quot;elbowEdgeStyle&quot;,&quot;elbow&quot;:&quot;vertical&quot;,&quot;curved&quot;:0,&quot;rounded&quot;:0};" parent="IqrVllIv2yJcSSQRdT5F-24" vertex="1">
          <mxGeometry x="55" y="540" width="10" height="20" as="geometry" />
        </mxCell>
        <mxCell id="IqrVllIv2yJcSSQRdT5F-40" value="" style="html=1;points=[];perimeter=orthogonalPerimeter;outlineConnect=0;targetShapes=umlLifeline;portConstraint=eastwest;newEdgeStyle={&quot;edgeStyle&quot;:&quot;elbowEdgeStyle&quot;,&quot;elbow&quot;:&quot;vertical&quot;,&quot;curved&quot;:0,&quot;rounded&quot;:0};" parent="IqrVllIv2yJcSSQRdT5F-24" vertex="1">
          <mxGeometry x="55" y="640" width="10" height="20" as="geometry" />
        </mxCell>
        <mxCell id="IqrVllIv2yJcSSQRdT5F-27" value="idUser" style="html=1;verticalAlign=bottom;endArrow=open;dashed=1;endSize=8;edgeStyle=elbowEdgeStyle;elbow=vertical;curved=0;rounded=0;" parent="1" source="IqrVllIv2yJcSSQRdT5F-20" target="IqrVllIv2yJcSSQRdT5F-3" edge="1">
          <mxGeometry x="0.0031" relative="1" as="geometry">
            <mxPoint x="620" y="480" as="targetPoint" />
            <Array as="points">
              <mxPoint x="755" y="480" />
              <mxPoint x="700" y="480" />
            </Array>
            <mxPoint x="770" y="480" as="sourcePoint" />
            <mxPoint as="offset" />
          </mxGeometry>
        </mxCell>
        <mxCell id="IqrVllIv2yJcSSQRdT5F-28" value="Exception" style="shape=umlLifeline;perimeter=lifelinePerimeter;whiteSpace=wrap;html=1;container=0;dropTarget=0;collapsible=0;recursiveResize=0;outlineConnect=0;portConstraint=eastwest;newEdgeStyle={&quot;edgeStyle&quot;:&quot;elbowEdgeStyle&quot;,&quot;elbow&quot;:&quot;vertical&quot;,&quot;curved&quot;:0,&quot;rounded&quot;:0};" parent="1" vertex="1">
          <mxGeometry x="960" y="210" width="100" height="1240" as="geometry" />
        </mxCell>
        <mxCell id="IqrVllIv2yJcSSQRdT5F-30" value="" style="html=1;points=[];perimeter=orthogonalPerimeter;outlineConnect=0;targetShapes=umlLifeline;portConstraint=eastwest;newEdgeStyle={&quot;edgeStyle&quot;:&quot;elbowEdgeStyle&quot;,&quot;elbow&quot;:&quot;vertical&quot;,&quot;curved&quot;:0,&quot;rounded&quot;:0};" parent="IqrVllIv2yJcSSQRdT5F-28" vertex="1">
          <mxGeometry x="45" y="750" width="10" height="30" as="geometry" />
        </mxCell>
        <mxCell id="IqrVllIv2yJcSSQRdT5F-35" value="WebContext" style="shape=umlLifeline;perimeter=lifelinePerimeter;whiteSpace=wrap;html=1;container=0;dropTarget=0;collapsible=0;recursiveResize=0;outlineConnect=0;portConstraint=eastwest;newEdgeStyle={&quot;edgeStyle&quot;:&quot;elbowEdgeStyle&quot;,&quot;elbow&quot;:&quot;vertical&quot;,&quot;curved&quot;:0,&quot;rounded&quot;:0};" parent="1" vertex="1">
          <mxGeometry x="1070" y="210" width="100" height="1220" as="geometry" />
        </mxCell>
        <mxCell id="IqrVllIv2yJcSSQRdT5F-54" value="" style="html=1;points=[];perimeter=orthogonalPerimeter;outlineConnect=0;targetShapes=umlLifeline;portConstraint=eastwest;newEdgeStyle={&quot;edgeStyle&quot;:&quot;elbowEdgeStyle&quot;,&quot;elbow&quot;:&quot;vertical&quot;,&quot;curved&quot;:0,&quot;rounded&quot;:0};" parent="IqrVllIv2yJcSSQRdT5F-35" vertex="1">
          <mxGeometry x="395" y="960" width="10" height="20" as="geometry" />
        </mxCell>
        <mxCell id="IqrVllIv2yJcSSQRdT5F-33" value="setVariable(&quot;student&quot;, student) ; setVariable(&quot;evaluation&quot;, evaluation) ; setVariable(&quot;errorMessage&quot;, error)" style="html=1;verticalAlign=bottom;endArrow=block;edgeStyle=elbowEdgeStyle;elbow=vertical;curved=0;rounded=0;" parent="IqrVllIv2yJcSSQRdT5F-35" target="IqrVllIv2yJcSSQRdT5F-36" edge="1">
          <mxGeometry relative="1" as="geometry">
            <mxPoint x="-705" y="930" as="sourcePoint" />
            <Array as="points">
              <mxPoint x="20" y="930" />
              <mxPoint x="10" y="920" />
              <mxPoint x="-280" y="950" />
              <mxPoint x="-238" y="940" />
              <mxPoint x="-268" y="950" />
              <mxPoint x="-488" y="961" />
              <mxPoint x="-626" y="950" />
              <mxPoint x="-646" y="960" />
              <mxPoint x="-626" y="950" />
            </Array>
            <mxPoint x="-83" y="940" as="targetPoint" />
          </mxGeometry>
        </mxCell>
        <mxCell id="IqrVllIv2yJcSSQRdT5F-34" value="process(WebContext, &quot;MarkManagement.html&quot;)" style="html=1;verticalAlign=bottom;endArrow=block;edgeStyle=elbowEdgeStyle;elbow=vertical;curved=0;rounded=0;" parent="IqrVllIv2yJcSSQRdT5F-35" target="IqrVllIv2yJcSSQRdT5F-54" edge="1">
          <mxGeometry x="0.0011" relative="1" as="geometry">
            <mxPoint x="-705" y="960" as="sourcePoint" />
            <Array as="points">
              <mxPoint x="160" y="960" />
              <mxPoint x="-110" y="1030" />
              <mxPoint x="90" y="1080" />
              <mxPoint x="200" y="990.5" />
              <mxPoint x="-278" y="986.5" />
              <mxPoint x="-236" y="976.5" />
              <mxPoint x="-266" y="986.5" />
              <mxPoint x="-486" y="997.5" />
              <mxPoint x="-624" y="986.5" />
              <mxPoint x="-644" y="996.5" />
              <mxPoint x="-624" y="986.5" />
            </Array>
            <mxPoint x="150" y="1040.5" as="targetPoint" />
            <mxPoint as="offset" />
          </mxGeometry>
        </mxCell>
        <mxCell id="IqrVllIv2yJcSSQRdT5F-36" value="" style="html=1;points=[];perimeter=orthogonalPerimeter;outlineConnect=0;targetShapes=umlLifeline;portConstraint=eastwest;newEdgeStyle={&quot;edgeStyle&quot;:&quot;elbowEdgeStyle&quot;,&quot;elbow&quot;:&quot;vertical&quot;,&quot;curved&quot;:0,&quot;rounded&quot;:0};" parent="IqrVllIv2yJcSSQRdT5F-35" vertex="1">
          <mxGeometry x="45" y="930" width="10" height="17.5" as="geometry" />
        </mxCell>
        <mxCell id="IqrVllIv2yJcSSQRdT5F-38" value="GraduationCallDAO" style="shape=umlLifeline;perimeter=lifelinePerimeter;whiteSpace=wrap;html=1;container=0;dropTarget=0;collapsible=0;recursiveResize=0;outlineConnect=0;portConstraint=eastwest;newEdgeStyle={&quot;edgeStyle&quot;:&quot;elbowEdgeStyle&quot;,&quot;elbow&quot;:&quot;vertical&quot;,&quot;curved&quot;:0,&quot;rounded&quot;:0};" parent="1" vertex="1">
          <mxGeometry x="1180" y="210" width="120" height="1240" as="geometry" />
        </mxCell>
        <mxCell id="IqrVllIv2yJcSSQRdT5F-39" value="" style="html=1;points=[];perimeter=orthogonalPerimeter;outlineConnect=0;targetShapes=umlLifeline;portConstraint=eastwest;newEdgeStyle={&quot;edgeStyle&quot;:&quot;elbowEdgeStyle&quot;,&quot;elbow&quot;:&quot;vertical&quot;,&quot;curved&quot;:0,&quot;rounded&quot;:0};" parent="IqrVllIv2yJcSSQRdT5F-38" vertex="1">
          <mxGeometry x="55" y="470" width="10" height="20" as="geometry" />
        </mxCell>
        <mxCell id="IqrVllIv2yJcSSQRdT5F-41" value="StudentDAO" style="shape=umlLifeline;perimeter=lifelinePerimeter;whiteSpace=wrap;html=1;container=0;dropTarget=0;collapsible=0;recursiveResize=0;outlineConnect=0;portConstraint=eastwest;newEdgeStyle={&quot;edgeStyle&quot;:&quot;elbowEdgeStyle&quot;,&quot;elbow&quot;:&quot;vertical&quot;,&quot;curved&quot;:0,&quot;rounded&quot;:0};" parent="1" vertex="1">
          <mxGeometry x="1310" y="211" width="100" height="1229" as="geometry" />
        </mxCell>
        <mxCell id="IqrVllIv2yJcSSQRdT5F-65" value="" style="html=1;points=[];perimeter=orthogonalPerimeter;outlineConnect=0;targetShapes=umlLifeline;portConstraint=eastwest;newEdgeStyle={&quot;edgeStyle&quot;:&quot;elbowEdgeStyle&quot;,&quot;elbow&quot;:&quot;vertical&quot;,&quot;curved&quot;:0,&quot;rounded&quot;:0};" parent="IqrVllIv2yJcSSQRdT5F-41" vertex="1">
          <mxGeometry x="45" y="509" width="10" height="20" as="geometry" />
        </mxCell>
        <mxCell id="IqrVllIv2yJcSSQRdT5F-70" value="" style="html=1;points=[];perimeter=orthogonalPerimeter;outlineConnect=0;targetShapes=umlLifeline;portConstraint=eastwest;newEdgeStyle={&quot;edgeStyle&quot;:&quot;elbowEdgeStyle&quot;,&quot;elbow&quot;:&quot;vertical&quot;,&quot;curved&quot;:0,&quot;rounded&quot;:0};" parent="IqrVllIv2yJcSSQRdT5F-41" vertex="1">
          <mxGeometry x="45" y="584" width="10" height="26" as="geometry" />
        </mxCell>
        <mxCell id="IqrVllIv2yJcSSQRdT5F-71" value="findStudentById(studentId)" style="html=1;verticalAlign=bottom;endArrow=block;edgeStyle=elbowEdgeStyle;elbow=vertical;curved=0;rounded=0;" parent="IqrVllIv2yJcSSQRdT5F-41" target="IqrVllIv2yJcSSQRdT5F-70" edge="1">
          <mxGeometry x="-0.0007" relative="1" as="geometry">
            <mxPoint x="-945" y="584" as="sourcePoint" />
            <Array as="points">
              <mxPoint x="-115" y="584" />
              <mxPoint x="-155" y="594" />
              <mxPoint x="-741" y="775.5" />
              <mxPoint x="-879" y="764.5" />
              <mxPoint x="-899" y="774.5" />
              <mxPoint x="-879" y="764.5" />
            </Array>
            <mxPoint x="-70" y="584" as="targetPoint" />
            <mxPoint as="offset" />
          </mxGeometry>
        </mxCell>
        <mxCell id="IqrVllIv2yJcSSQRdT5F-53" value="TemplateEngine" style="shape=umlLifeline;perimeter=lifelinePerimeter;whiteSpace=wrap;html=1;container=0;dropTarget=0;collapsible=0;recursiveResize=0;outlineConnect=0;portConstraint=eastwest;newEdgeStyle={&quot;edgeStyle&quot;:&quot;elbowEdgeStyle&quot;,&quot;elbow&quot;:&quot;vertical&quot;,&quot;curved&quot;:0,&quot;rounded&quot;:0};" parent="1" vertex="1">
          <mxGeometry x="1420" y="211" width="100" height="1229" as="geometry" />
        </mxCell>
        <mxCell id="IqrVllIv2yJcSSQRdT5F-6" value="getAttribute(&quot;user&quot;)" style="html=1;verticalAlign=bottom;endArrow=block;edgeStyle=elbowEdgeStyle;elbow=vertical;curved=0;rounded=0;" parent="1" source="IqrVllIv2yJcSSQRdT5F-3" target="IqrVllIv2yJcSSQRdT5F-5" edge="1">
          <mxGeometry relative="1" as="geometry">
            <mxPoint x="358" y="300" as="sourcePoint" />
            <Array as="points">
              <mxPoint x="420" y="300" />
              <mxPoint x="400" y="310" />
              <mxPoint x="420" y="300" />
            </Array>
            <mxPoint x="530" y="300" as="targetPoint" />
          </mxGeometry>
        </mxCell>
        <mxCell id="IqrVllIv2yJcSSQRdT5F-7" value="user" style="html=1;verticalAlign=bottom;endArrow=open;dashed=1;endSize=8;edgeStyle=elbowEdgeStyle;elbow=vertical;curved=0;rounded=0;" parent="1" source="IqrVllIv2yJcSSQRdT5F-5" target="IqrVllIv2yJcSSQRdT5F-3" edge="1">
          <mxGeometry x="0.0031" relative="1" as="geometry">
            <mxPoint x="358" y="330" as="targetPoint" />
            <Array as="points">
              <mxPoint x="493" y="330" />
              <mxPoint x="438" y="330" />
            </Array>
            <mxPoint x="508" y="330" as="sourcePoint" />
            <mxPoint as="offset" />
          </mxGeometry>
        </mxCell>
        <mxCell id="IqrVllIv2yJcSSQRdT5F-46" value="checkIfCourseOfCallIsTaughtByLecturer(callId, idUser) &lt;b&gt;&lt;font color=&quot;#ff8000&quot;&gt;?: [THROW GraduationCallDAOException]&lt;/font&gt;&lt;/b&gt;" style="html=1;verticalAlign=bottom;endArrow=block;edgeStyle=elbowEdgeStyle;elbow=vertical;curved=0;rounded=0;" parent="1" source="IqrVllIv2yJcSSQRdT5F-3" target="IqrVllIv2yJcSSQRdT5F-39" edge="1">
          <mxGeometry x="-0.0007" relative="1" as="geometry">
            <mxPoint x="360" y="871.5" as="sourcePoint" />
            <Array as="points">
              <mxPoint x="1190" y="680" />
              <mxPoint x="1150" y="690" />
              <mxPoint x="564" y="871.5" />
              <mxPoint x="426" y="860.5" />
              <mxPoint x="406" y="870.5" />
              <mxPoint x="426" y="860.5" />
            </Array>
            <mxPoint x="869" y="871.5" as="targetPoint" />
            <mxPoint as="offset" />
          </mxGeometry>
        </mxCell>
        <mxCell id="IqrVllIv2yJcSSQRdT5F-66" value="checkIfStudentIsSubscribedToCall(studentId, callId) &lt;b&gt;&lt;font color=&quot;#ff8000&quot;&gt;?: [THROW StudentDAOException]&lt;/font&gt;&lt;/b&gt;" style="html=1;verticalAlign=bottom;endArrow=block;edgeStyle=elbowEdgeStyle;elbow=vertical;curved=0;rounded=0;" parent="1" source="IqrVllIv2yJcSSQRdT5F-3" target="IqrVllIv2yJcSSQRdT5F-65" edge="1">
          <mxGeometry x="-0.0007" relative="1" as="geometry">
            <mxPoint x="370" y="720" as="sourcePoint" />
            <Array as="points">
              <mxPoint x="1195" y="720" />
              <mxPoint x="1155" y="730" />
              <mxPoint x="569" y="911.5" />
              <mxPoint x="431" y="900.5" />
              <mxPoint x="411" y="910.5" />
              <mxPoint x="431" y="900.5" />
            </Array>
            <mxPoint x="1240" y="720" as="targetPoint" />
            <mxPoint as="offset" />
          </mxGeometry>
        </mxCell>
        <mxCell id="IqrVllIv2yJcSSQRdT5F-69" value="checkIfStudentMarkIsUpdatable(studentId, callId) &lt;b&gt;&lt;font color=&quot;#ff8000&quot;&gt;?: [THROW CallEvaluationDAOException]&lt;/font&gt;&lt;/b&gt;" style="html=1;verticalAlign=bottom;endArrow=block;edgeStyle=elbowEdgeStyle;elbow=vertical;curved=0;rounded=0;" parent="1" source="IqrVllIv2yJcSSQRdT5F-3" target="IqrVllIv2yJcSSQRdT5F-67" edge="1">
          <mxGeometry relative="1" as="geometry">
            <mxPoint x="375" y="760" as="sourcePoint" />
            <Array as="points">
              <mxPoint x="680" y="750" />
              <mxPoint x="432" y="760" />
              <mxPoint x="412" y="770" />
              <mxPoint x="432" y="760" />
            </Array>
            <mxPoint x="767" y="760" as="targetPoint" />
          </mxGeometry>
        </mxCell>
        <mxCell id="IqrVllIv2yJcSSQRdT5F-72" value="student" style="html=1;verticalAlign=bottom;endArrow=open;dashed=1;endSize=8;edgeStyle=elbowEdgeStyle;elbow=vertical;curved=0;rounded=0;" parent="1" source="IqrVllIv2yJcSSQRdT5F-70" target="IqrVllIv2yJcSSQRdT5F-3" edge="1">
          <mxGeometry x="0.0031" relative="1" as="geometry">
            <mxPoint x="960" y="819.23" as="targetPoint" />
            <Array as="points">
              <mxPoint x="1210" y="820" />
            </Array>
            <mxPoint x="1350" y="820" as="sourcePoint" />
            <mxPoint as="offset" />
          </mxGeometry>
        </mxCell>
        <mxCell id="IqrVllIv2yJcSSQRdT5F-50" value="evaluation" style="html=1;verticalAlign=bottom;endArrow=open;dashed=1;endSize=8;edgeStyle=elbowEdgeStyle;elbow=vertical;curved=0;rounded=0;" parent="1" source="IqrVllIv2yJcSSQRdT5F-40" target="IqrVllIv2yJcSSQRdT5F-3" edge="1">
          <mxGeometry x="0.0031" relative="1" as="geometry">
            <mxPoint x="365" y="981" as="targetPoint" />
            <Array as="points">
              <mxPoint x="730" y="870" />
              <mxPoint x="1164" y="981" />
              <mxPoint x="904" y="891" />
              <mxPoint x="1109" y="880" />
              <mxPoint x="1054" y="880" />
            </Array>
            <mxPoint x="1232" y="980" as="sourcePoint" />
            <mxPoint as="offset" />
          </mxGeometry>
        </mxCell>
        <mxCell id="IqrVllIv2yJcSSQRdT5F-49" value="findEvaluationByCallAndStudentId(callId, studentId)" style="html=1;verticalAlign=bottom;endArrow=block;edgeStyle=elbowEdgeStyle;elbow=vertical;curved=0;rounded=0;" parent="1" source="IqrVllIv2yJcSSQRdT5F-3" target="IqrVllIv2yJcSSQRdT5F-40" edge="1">
          <mxGeometry x="-0.0007" relative="1" as="geometry">
            <mxPoint x="365" y="960" as="sourcePoint" />
            <Array as="points">
              <mxPoint x="750" y="850" />
              <mxPoint x="564" y="960" />
              <mxPoint x="426" y="949" />
              <mxPoint x="406" y="959" />
              <mxPoint x="426" y="949" />
            </Array>
            <mxPoint x="1235" y="960.5" as="targetPoint" />
            <mxPoint as="offset" />
          </mxGeometry>
        </mxCell>
        <mxCell id="IqrVllIv2yJcSSQRdT5F-29" value="" style="line;strokeWidth=3;align=left;verticalAlign=middle;spacingTop=-1;spacingLeft=3;spacingRight=3;rotatable=0;labelPosition=right;points=[];portConstraint=eastwest;dashed=1;strokeColor=#80FF00;" parent="1" vertex="1">
          <mxGeometry x="260" y="890" width="1300" height="8" as="geometry" />
        </mxCell>
        <mxCell id="IqrVllIv2yJcSSQRdT5F-31" value="getMessage()" style="html=1;verticalAlign=bottom;endArrow=block;edgeStyle=elbowEdgeStyle;elbow=vertical;curved=0;rounded=0;" parent="1" source="IqrVllIv2yJcSSQRdT5F-3" target="IqrVllIv2yJcSSQRdT5F-30" edge="1">
          <mxGeometry relative="1" as="geometry">
            <mxPoint x="368" y="959.9999999999998" as="sourcePoint" />
            <Array as="points">
              <mxPoint x="830" y="960" />
              <mxPoint x="800" y="970" />
              <mxPoint x="580" y="981" />
              <mxPoint x="442" y="970" />
              <mxPoint x="422" y="980" />
              <mxPoint x="442" y="970" />
            </Array>
            <mxPoint x="885" y="981" as="targetPoint" />
          </mxGeometry>
        </mxCell>
        <mxCell id="IqrVllIv2yJcSSQRdT5F-32" value="error message" style="html=1;verticalAlign=bottom;endArrow=open;dashed=1;endSize=8;edgeStyle=elbowEdgeStyle;elbow=vertical;curved=0;rounded=0;" parent="1" source="IqrVllIv2yJcSSQRdT5F-30" target="IqrVllIv2yJcSSQRdT5F-3" edge="1">
          <mxGeometry x="0.0031" relative="1" as="geometry">
            <mxPoint x="368" y="989.9999999999998" as="targetPoint" />
            <Array as="points">
              <mxPoint x="672" y="990" />
              <mxPoint x="877" y="979" />
              <mxPoint x="822" y="979" />
            </Array>
            <mxPoint x="987" y="990" as="sourcePoint" />
            <mxPoint as="offset" />
          </mxGeometry>
        </mxCell>
        <mxCell id="IqrVllIv2yJcSSQRdT5F-51" value="Catch(SQLException | StudentDAOException |&lt;b style=&quot;color: rgb(240, 240, 240); font-size: 11px; font-style: normal;&quot;&gt;&lt;font color=&quot;#ff8000&quot;&gt;NumberFormatExcpetion | NullPointerExcpetion | GraduationCallDAOException | CallEvaluationDAOException&lt;/font&gt;&lt;/b&gt;)" style="text;html=1;align=center;verticalAlign=middle;whiteSpace=wrap;rounded=0;fontStyle=3;fontColor=#FF8000;" parent="1" vertex="1">
          <mxGeometry x="290" y="919.5" width="330" height="20" as="geometry" />
        </mxCell>
      </root>
    </mxGraphModel>
  </diagram>
</mxfile>
